<svg width="22" height="22" viewBox="0 0 22 22" fill="none" xmlns="http://www.w3.org/2000/svg">
  <path d="M13.75 1.83334H5.50002C5.01379 1.83334 4.54747 2.02649 4.20366 2.37031C3.85984 2.71412 3.66669 3.18044 3.66669 3.66667V18.3333C3.66669 18.8196 3.85984 19.2859 4.20366 19.6297C4.54747 19.9735 5.01379 20.1667 5.50002 20.1667H16.5C16.9863 20.1667 17.4526 19.9735 17.7964 19.6297C18.1402 19.2859 18.3334 18.8196 18.3334 18.3333V6.41667L13.75 1.83334Z" stroke="#435265" stroke-width="2" stroke-linecap="round" stroke-linejoin="round"/>
  <path d="M12.8334 1.83334V5.5C12.8334 5.98623 13.0265 6.45255 13.3703 6.79637C13.7142 7.14018 14.1805 7.33334 14.6667 7.33334H18.3334" stroke="#435265" stroke-width="2" stroke-linecap="round" stroke-linejoin="round"/>
  <path d="M9.16671 8.25H7.33337" stroke="#435265" stroke-width="2" stroke-linecap="round" stroke-linejoin="round"/>
  <path d="M14.6667 11.9167H7.33337" stroke="#435265" stroke-width="2" stroke-linecap="round" stroke-linejoin="round"/>
  <path d="M14.6667 15.5833H7.33337" stroke="#435265" stroke-width="2" stroke-linecap="round" stroke-linejoin="round"/>
</svg>
