<svg width="22" height="22" viewBox="0 0 22 22" fill="none" xmlns="http://www.w3.org/2000/svg">
  <path d="M12.8333 16.5L16.5 12.8333L20.1667 16.5" stroke="#435265" stroke-width="2" stroke-linecap="round" stroke-linejoin="round"/>
  <path d="M14.6667 1.83334V5.5" stroke="#435265" stroke-width="2" stroke-linecap="round" stroke-linejoin="round"/>
  <path d="M16.5 20.1667V12.8333" stroke="#435265" stroke-width="2" stroke-linecap="round" stroke-linejoin="round"/>
  <path d="M19.25 10.3978V5.50001C19.25 5.01377 19.0568 4.54746 18.713 4.20364C18.3692 3.85983 17.9029 3.66667 17.4167 3.66667H4.58333C4.0971 3.66667 3.63079 3.85983 3.28697 4.20364C2.94315 4.54746 2.75 5.01377 2.75 5.50001V18.3333C2.75 18.8196 2.94315 19.2859 3.28697 19.6297C3.63079 19.9735 4.0971 20.1667 4.58333 20.1667H12.8333" stroke="#435265" stroke-width="2" stroke-linecap="round" stroke-linejoin="round"/>
  <path d="M2.75 9.16667H19.25" stroke="#435265" stroke-width="2" stroke-linecap="round" stroke-linejoin="round"/>
  <path d="M7.33334 1.83334V5.5" stroke="#435265" stroke-width="2" stroke-linecap="round" stroke-linejoin="round"/>
</svg>